<svg width="2629pt" height="2032pt" viewBox="0.00 0.00 2629.34 2032.38" xmlns="http://www.w3.org/2000/svg" xmlns:xlink="http://www.w3.org/1999/xlink">
<g id="graph0" class="graph" transform="scale(1 1) rotate(0) translate(4 2028.38)">
<title>bipartite_graph</title>
<polygon fill="white" stroke="transparent" points="-4,4 -4,-2028.38 2625.34,-2028.38 2625.34,4 -4,4"></polygon>
<g id="clust1" class="cluster">
<title>cluster_nodes1</title>
<polygon fill="none" stroke="black" points="37.7,-1978.38 37.7,-2016.38 2613.34,-2016.38 2613.34,-1978.38 37.7,-1978.38"></polygon>
</g>
<g id="clust2" class="cluster">
<title>cluster_nodes2</title>
<polygon fill="none" stroke="black" points="8,-1932.38 8,-1970.38 1005.73,-1970.38 1005.73,-1932.38 8,-1932.38"></polygon>
</g>
<!-- n1_1 -->
<g id="node1" class="node">
<title>n1_1</title>
<ellipse fill="none" stroke="black" cx="70.45" cy="-1997.38" rx="25" ry="10.71"></ellipse>
<text text-anchor="middle" x="70.45" y="-1993.68" font-family="Times,serif" font-size="14.00">Alice</text>
</g>
<!-- n1_2 -->
<g id="node2" class="node">
<title>n1_2</title>
<ellipse fill="none" stroke="black" cx="199.08" cy="-1997.38" rx="19.6" ry="10.71"></ellipse>
<text text-anchor="middle" x="199.08" y="-1993.68" font-family="Times,serif" font-size="14.00">Bob</text>
</g>
<!-- n1_1&#45;&gt;n1_2 -->
<!-- n2_2 -->
<g id="node27" class="node">
<title>n2_2</title>
<ellipse fill="none" stroke="black" cx="199.08" cy="-1951.38" rx="38.37" ry="10.71"></ellipse>
<text text-anchor="middle" x="199.08" y="-1947.68" font-family="Times,serif" font-size="14.00">History</text>
</g>
<!-- n1_1&#45;&gt;n2_2 -->
<g id="edge46" class="edge">
<title>n1_1-&gt;n2_2</title>
<path fill="none" stroke="black" d="M89.86,-1990.69C110.95,-1983.02 145.74,-1970.39 170.17,-1961.51"></path>
<polygon fill="black" stroke="black" points="170.81,-1963.14 174.91,-1959.79 169.61,-1959.85 170.81,-1963.14"></polygon>
</g>
<!-- n2_3 -->
<g id="node28" class="node">
<title>n2_3</title>
<ellipse fill="none" stroke="black" cx="312.15" cy="-1951.38" rx="38.78" ry="10.71"></ellipse>
<text text-anchor="middle" x="312.15" y="-1947.68" font-family="Times,serif" font-size="14.00">English</text>
</g>
<!-- n1_1&#45;&gt;n2_3 -->
<g id="edge56" class="edge">
<title>n1_1-&gt;n2_3</title>
<path fill="none" stroke="black" d="M91.15,-1991.4C101.79,-1987.58 114.77,-1981.92 124.89,-1974.38 144.89,-1959.49 138.31,-1941.92 160.89,-1931.38 202.09,-1912.14 256.11,-1927.97 286.89,-1940.31"></path>
<polygon fill="black" stroke="black" points="286.33,-1941.97 291.62,-1942.25 287.66,-1938.73 286.33,-1941.97"></polygon>
</g>
<!-- n2_8 -->
<g id="node33" class="node">
<title>n2_8</title>
<ellipse fill="none" stroke="black" cx="963.79" cy="-1951.38" rx="33.88" ry="10.71"></ellipse>
<text text-anchor="middle" x="963.79" y="-1947.68" font-family="Times,serif" font-size="14.00">Sports</text>
</g>
<!-- n1_1&#45;&gt;n2_8 -->
<g id="edge102" class="edge">
<title>n1_1-&gt;n2_8</title>
<path fill="none" stroke="black" d="M93.16,-1993.12C104.25,-1989.83 117.04,-1984.13 124.89,-1974.38 220.81,-1855.29 269.07,-720.66 387.04,-623.38 855.5,-237.08 952.56,-1763.06 961.98,-1935.63"></path>
<polygon fill="black" stroke="black" points="960.24,-1935.87 962.26,-1940.77 963.74,-1935.69 960.24,-1935.87"></polygon>
</g>
<!-- n1_3 -->
<g id="node3" class="node">
<title>n1_3</title>
<ellipse fill="none" stroke="black" cx="312.15" cy="-1997.38" rx="27.65" ry="10.71"></ellipse>
<text text-anchor="middle" x="312.15" y="-1993.68" font-family="Times,serif" font-size="14.00">Carol</text>
</g>
<!-- n1_2&#45;&gt;n1_3 -->
<!-- n2_1 -->
<g id="node26" class="node">
<title>n2_1</title>
<ellipse fill="none" stroke="black" cx="70.45" cy="-1951.38" rx="54.39" ry="10.71"></ellipse>
<text text-anchor="middle" x="70.45" y="-1947.68" font-family="Times,serif" font-size="14.00">Economics</text>
</g>
<!-- n1_2&#45;&gt;n2_1 -->
<g id="edge32" class="edge">
<title>n1_2-&gt;n2_1</title>
<path fill="none" stroke="black" d="M182.1,-1991.57C162.05,-1984.29 127.22,-1971.64 101.99,-1962.47"></path>
<polygon fill="black" stroke="black" points="102.37,-1960.75 97.07,-1960.68 101.17,-1964.04 102.37,-1960.75"></polygon>
</g>
<!-- n2_7 -->
<g id="node32" class="node">
<title>n2_7</title>
<ellipse fill="none" stroke="black" cx="812.53" cy="-1951.38" rx="81.13" ry="10.71"></ellipse>
<text text-anchor="middle" x="812.53" y="-1947.68" font-family="Times,serif" font-size="14.00">Basket Weaving</text>
</g>
<!-- n1_2&#45;&gt;n2_7 -->
<g id="edge93" class="edge">
<title>n1_2-&gt;n2_7</title>
<path fill="none" stroke="black" d="M214.46,-1990.31C221.79,-1986.28 230.55,-1980.76 237.26,-1974.38 253.4,-1959.03 343.85,-1830.45 351.04,-1809.38 374.98,-1739.24 333.25,-1194.34 387.04,-1143.38 660.48,-884.32 792.11,-1802.99 809.53,-1935.62"></path>
<polygon fill="black" stroke="black" points="807.81,-1935.94 810.19,-1940.67 811.28,-1935.49 807.81,-1935.94"></polygon>
</g>
<!-- n1_4 -->
<g id="node4" class="node">
<title>n1_4</title>
<ellipse fill="none" stroke="black" cx="413.91" cy="-1997.38" rx="20.51" ry="10.71"></ellipse>
<text text-anchor="middle" x="413.91" y="-1993.68" font-family="Times,serif" font-size="14.00">Dan</text>
</g>
<!-- n1_3&#45;&gt;n1_4 -->
<!-- n1_3&#45;&gt;n2_1 -->
<g id="edge33" class="edge">
<title>n1_3-&gt;n2_1</title>
<path fill="none" stroke="black" d="M294.88,-1989.06C287.87,-1985.1 279.8,-1979.99 273.26,-1974.38 254.35,-1958.14 259.85,-1941.92 237.26,-1931.38 191.81,-1910.15 132.07,-1926.74 98.11,-1939.74"></path>
<polygon fill="black" stroke="black" points="97.31,-1938.17 93.29,-1941.62 98.58,-1941.43 97.31,-1938.17"></polygon>
</g>
<!-- n2_4 -->
<g id="node29" class="node">
<title>n2_4</title>
<ellipse fill="none" stroke="black" cx="413.91" cy="-1951.38" rx="26.74" ry="10.71"></ellipse>
<text text-anchor="middle" x="413.91" y="-1947.68" font-family="Times,serif" font-size="14.00">Math</text>
</g>
<!-- n1_3&#45;&gt;n2_4 -->
<g id="edge65" class="edge">
<title>n1_3-&gt;n2_4</title>
<path fill="none" stroke="black" d="M330.53,-1989.36C347.27,-1981.65 372.65,-1969.94 390.82,-1961.56"></path>
<polygon fill="black" stroke="black" points="391.93,-1962.98 395.74,-1959.3 390.46,-1959.8 391.93,-1962.98"></polygon>
</g>
<!-- n1_3&#45;&gt;n2_7 -->
<g id="edge94" class="edge">
<title>n1_3-&gt;n2_7</title>
<path fill="none" stroke="black" d="M329.43,-1989.06C336.44,-1985.1 344.51,-1979.99 351.04,-1974.38 369.95,-1958.14 365.82,-1944.44 387.04,-1931.38 421.93,-1909.9 436.16,-1915.62 476.78,-1910.38 573.08,-1897.96 599.71,-1889.92 695.22,-1907.38 727.93,-1913.36 763.39,-1928.07 786.45,-1938.84"></path>
<polygon fill="black" stroke="black" points="785.91,-1940.52 791.17,-1941.08 787.4,-1937.36 785.91,-1940.52"></polygon>
</g>
<!-- n1_5 -->
<g id="node5" class="node">
<title>n1_5</title>
<ellipse fill="none" stroke="black" cx="514.97" cy="-1997.38" rx="21.84" ry="10.71"></ellipse>
<text text-anchor="middle" x="514.97" y="-1993.68" font-family="Times,serif" font-size="14.00">Erin</text>
</g>
<!-- n1_4&#45;&gt;n1_5 -->
<!-- n1_4&#45;&gt;n2_1 -->
<g id="edge34" class="edge">
<title>n1_4-&gt;n2_1</title>
<path fill="none" stroke="black" d="M401.7,-1988.6C396.89,-1984.55 391.4,-1979.51 387.04,-1974.38 367.66,-1951.53 377.22,-1931.95 351.04,-1917.38 267.03,-1870.59 147.1,-1915.75 96.01,-1939.2"></path>
<polygon fill="black" stroke="black" points="95.08,-1937.7 91.29,-1941.4 96.56,-1940.88 95.08,-1937.7"></polygon>
</g>
<!-- n1_4&#45;&gt;n2_2 -->
<g id="edge47" class="edge">
<title>n1_4-&gt;n2_2</title>
<path fill="none" stroke="black" d="M402.02,-1988.32C397.27,-1984.21 391.73,-1979.21 387.04,-1974.38 369.68,-1956.49 373.63,-1941.92 351.04,-1931.38 309.66,-1912.05 255.38,-1927.92 224.46,-1940.28"></path>
<polygon fill="black" stroke="black" points="223.66,-1938.71 219.7,-1942.23 224.99,-1941.95 223.66,-1938.71"></polygon>
</g>
<!-- n1_4&#45;&gt;n2_7 -->
<g id="edge95" class="edge">
<title>n1_4-&gt;n2_7</title>
<path fill="none" stroke="black" d="M425.81,-1988.32C430.56,-1984.21 436.1,-1979.21 440.78,-1974.38 458.14,-1956.49 454.2,-1941.92 476.78,-1931.38 578.63,-1883.81 717.26,-1919.37 779.26,-1939.72"></path>
<polygon fill="black" stroke="black" points="779.01,-1941.48 784.31,-1941.4 780.11,-1938.16 779.01,-1941.48"></polygon>
</g>
<!-- n1_6 -->
<g id="node6" class="node">
<title>n1_6</title>
<ellipse fill="none" stroke="black" cx="642.18" cy="-1997.38" rx="19.6" ry="10.71"></ellipse>
<text text-anchor="middle" x="642.18" y="-1993.68" font-family="Times,serif" font-size="14.00">Eve</text>
</g>
<!-- n1_5&#45;&gt;n1_6 -->
<!-- n1_5&#45;&gt;n2_2 -->
<g id="edge48" class="edge">
<title>n1_5-&gt;n2_2</title>
<path fill="none" stroke="black" d="M498.79,-1989.98C491.6,-1986 483.2,-1980.63 476.78,-1974.38 455.86,-1953.98 466.33,-1933.56 440.78,-1919.38 375.68,-1883.24 345.97,-1901.31 273.26,-1917.38 254.33,-1921.56 234.49,-1931.15 220.25,-1939.08"></path>
<polygon fill="black" stroke="black" points="219.12,-1937.71 215.64,-1941.7 220.85,-1940.75 219.12,-1937.71"></polygon>
</g>
<!-- n1_5&#45;&gt;n2_3 -->
<g id="edge57" class="edge">
<title>n1_5-&gt;n2_3</title>
<path fill="none" stroke="black" d="M499.46,-1989.85C492.27,-1985.77 483.67,-1980.34 476.78,-1974.38 457.94,-1958.06 463.37,-1941.92 440.78,-1931.38 406.92,-1915.56 363.07,-1928.81 336.58,-1939.98"></path>
<polygon fill="black" stroke="black" points="335.73,-1938.44 331.84,-1942.04 337.12,-1941.65 335.73,-1938.44"></polygon>
</g>
<!-- n2_5 -->
<g id="node30" class="node">
<title>n2_5</title>
<ellipse fill="none" stroke="black" cx="514.97" cy="-1951.38" rx="38.37" ry="10.71"></ellipse>
<text text-anchor="middle" x="514.97" y="-1947.68" font-family="Times,serif" font-size="14.00">Biology</text>
</g>
<!-- n1_5&#45;&gt;n2_5 -->
<g id="edge75" class="edge">
<title>n1_5-&gt;n2_5</title>
<path fill="none" stroke="black" d="M514.97,-1986.65C514.97,-1980.27 514.97,-1973.89 514.97,-1967.51"></path>
<polygon fill="black" stroke="black" points="516.72,-1967.16 514.97,-1962.16 513.22,-1967.16 516.72,-1967.16"></polygon>
</g>
<!-- n1_7 -->
<g id="node7" class="node">
<title>n1_7</title>
<ellipse fill="none" stroke="black" cx="812.53" cy="-1997.38" rx="26.33" ry="10.71"></ellipse>
<text text-anchor="middle" x="812.53" y="-1993.68" font-family="Times,serif" font-size="14.00">Faith</text>
</g>
<!-- n1_6&#45;&gt;n1_7 -->
<!-- n1_6&#45;&gt;n2_3 -->
<g id="edge58" class="edge">
<title>n1_6-&gt;n2_3</title>
<path fill="none" stroke="black" d="M624.68,-1992.28C613.9,-1988.44 599.89,-1982.45 589.15,-1974.38 569.23,-1959.39 575.14,-1943.11 553.15,-1931.38 487.85,-1896.54 459.52,-1904.36 387.04,-1919.38 368.47,-1923.22 348.83,-1931.98 334.47,-1939.36"></path>
<polygon fill="black" stroke="black" points="333.43,-1937.93 329.82,-1941.8 335.06,-1941.03 333.43,-1937.93"></polygon>
</g>
<!-- n1_6&#45;&gt;n2_5 -->
<g id="edge76" class="edge">
<title>n1_6-&gt;n2_5</title>
<path fill="none" stroke="black" d="M625.41,-1991.58C604.88,-1984.04 568.64,-1970.72 543.51,-1961.49"></path>
<polygon fill="black" stroke="black" points="543.94,-1959.79 538.64,-1959.71 542.73,-1963.07 543.94,-1959.79"></polygon>
</g>
<!-- n1_8 -->
<g id="node8" class="node">
<title>n1_8</title>
<ellipse fill="none" stroke="black" cx="963.79" cy="-1997.38" rx="30.31" ry="10.71"></ellipse>
<text text-anchor="middle" x="963.79" y="-1993.68" font-family="Times,serif" font-size="14.00">Frank</text>
</g>
<!-- n1_7&#45;&gt;n1_8 -->
<!-- n1_7&#45;&gt;n2_1 -->
<g id="edge35" class="edge">
<title>n1_7-&gt;n2_1</title>
<path fill="none" stroke="black" d="M786.28,-1996.73C768.42,-1994.89 745.24,-1989.46 731.22,-1974.38 623.86,-1858.9 563.15,-684.8 440.78,-585.38 211.37,-398.97 86.9,-1770.08 72.8,-1935.21"></path>
<polygon fill="black" stroke="black" points="71.02,-1935.44 72.34,-1940.57 74.51,-1935.74 71.02,-1935.44"></polygon>
</g>
<!-- n1_7&#45;&gt;n2_4 -->
<g id="edge66" class="edge">
<title>n1_7-&gt;n2_4</title>
<path fill="none" stroke="black" d="M787.13,-1994.24C770.35,-1991.2 748.12,-1985.36 731.22,-1974.38 710.32,-1960.79 717.8,-1941.92 695.22,-1931.38 608.03,-1890.66 488.81,-1924.55 438.67,-1942.26"></path>
<polygon fill="black" stroke="black" points="437.86,-1940.69 433.75,-1944.02 439.05,-1943.98 437.86,-1940.69"></polygon>
</g>
<!-- n1_9 -->
<g id="node9" class="node">
<title>n1_9</title>
<ellipse fill="none" stroke="black" cx="1064.14" cy="-1997.38" rx="30.31" ry="10.71"></ellipse>
<text text-anchor="middle" x="1064.14" y="-1993.68" font-family="Times,serif" font-size="14.00">Grace</text>
</g>
<!-- n1_8&#45;&gt;n1_9 -->
<!-- n1_8&#45;&gt;n2_4 -->
<g id="edge67" class="edge">
<title>n1_8-&gt;n2_4</title>
<path fill="none" stroke="black" d="M946.9,-1988.36C941.08,-1984.55 934.73,-1979.75 929.85,-1974.38 907.92,-1950.21 921.9,-1927.06 893.85,-1910.38 734.56,-1815.59 653.54,-1854.54 476.78,-1910.38 458.84,-1916.05 441.23,-1928.59 429.41,-1938.32"></path>
<polygon fill="black" stroke="black" points="428.03,-1937.2 425.33,-1941.76 430.29,-1939.88 428.03,-1937.2"></polygon>
</g>
<!-- n2_6 -->
<g id="node31" class="node">
<title>n2_6</title>
<ellipse fill="none" stroke="black" cx="642.18" cy="-1951.38" rx="53.07" ry="10.71"></ellipse>
<text text-anchor="middle" x="642.18" y="-1947.68" font-family="Times,serif" font-size="14.00">Chemistry</text>
</g>
<!-- n1_8&#45;&gt;n2_6 -->
<g id="edge84" class="edge">
<title>n1_8-&gt;n2_6</title>
<path fill="none" stroke="black" d="M947.73,-1988.08C941.89,-1984.17 935.3,-1979.37 929.85,-1974.38 911.47,-1957.54 916.44,-1941.92 893.85,-1931.38 819.85,-1896.82 720.14,-1923.45 671.82,-1940.29"></path>
<polygon fill="black" stroke="black" points="671.15,-1938.67 667.03,-1941.99 672.32,-1941.97 671.15,-1938.67"></polygon>
</g>
<!-- n1_10 -->
<g id="node10" class="node">
<title>n1_10</title>
<ellipse fill="none" stroke="black" cx="1158.12" cy="-1997.38" rx="27.65" ry="10.71"></ellipse>
<text text-anchor="middle" x="1158.12" y="-1993.68" font-family="Times,serif" font-size="14.00">Heidi</text>
</g>
<!-- n1_9&#45;&gt;n1_10 -->
<!-- n1_9&#45;&gt;n2_1 -->
<g id="edge36" class="edge">
<title>n1_9-&gt;n2_1</title>
<path fill="none" stroke="black" d="M1062.69,-1986.45C1056.65,-1843.9 989.35,-354.38 813.53,-354.38 311.15,-354.38 311.15,-354.38 311.15,-354.38 142.31,-354.38 78.98,-1768.46 72.09,-1935.35"></path>
<polygon fill="black" stroke="black" points="70.32,-1935.69 71.87,-1940.76 73.82,-1935.83 70.32,-1935.69"></polygon>
</g>
<!-- n1_9&#45;&gt;n2_2 -->
<g id="edge49" class="edge">
<title>n1_9-&gt;n2_2</title>
<path fill="none" stroke="black" d="M1062.18,-1986.68C1052.95,-1891.66 971.15,-1193.25 553.15,-1093.38 248.98,-1020.7 483.05,-1483.87 351.04,-1767.38 316.99,-1840.51 247.07,-1909.11 215.8,-1937.56"></path>
<polygon fill="black" stroke="black" points="214.37,-1936.49 211.83,-1941.14 216.71,-1939.09 214.37,-1936.49"></polygon>
</g>
<!-- n1_9&#45;&gt;n2_7 -->
<g id="edge96" class="edge">
<title>n1_9-&gt;n2_7</title>
<path fill="none" stroke="black" d="M1057.83,-1986.89C1049.29,-1971.36 1030.89,-1942.83 1005.73,-1931.38 952.27,-1907.02 882,-1925.35 842.95,-1939.36"></path>
<polygon fill="black" stroke="black" points="841.97,-1937.85 837.88,-1941.22 843.18,-1941.14 841.97,-1937.85"></polygon>
</g>
<!-- n1_9&#45;&gt;n2_8 -->
<g id="edge103" class="edge">
<title>n1_9-&gt;n2_8</title>
<path fill="none" stroke="black" d="M1045.23,-1989C1029.32,-1981.56 1005.96,-1970.63 988.51,-1962.47"></path>
<polygon fill="black" stroke="black" points="989.03,-1960.78 983.76,-1960.25 987.54,-1963.95 989.03,-1960.78"></polygon>
</g>
<!-- n1_11 -->
<g id="node11" class="node">
<title>n1_11</title>
<ellipse fill="none" stroke="black" cx="1243.62" cy="-1997.38" rx="21.84" ry="10.71"></ellipse>
<text text-anchor="middle" x="1243.62" y="-1993.68" font-family="Times,serif" font-size="14.00">Ivan</text>
</g>
<!-- n1_10&#45;&gt;n1_11 -->
<!-- n1_10&#45;&gt;n2_4 -->
<g id="edge68" class="edge">
<title>n1_10-&gt;n2_4</title>
<path fill="none" stroke="black" d="M1153.12,-1986.68C1145.14,-1966.88 1125.34,-1924.51 1094.55,-1902.38 1019.64,-1848.53 985.34,-1861.25 893.85,-1849.38 709.49,-1825.44 626.53,-1771.2 476.78,-1881.38 453.25,-1898.69 461.99,-1916.28 440.78,-1936.38 439.26,-1937.82 437.57,-1939.19 435.8,-1940.46"></path>
<polygon fill="black" stroke="black" points="434.79,-1939.03 431.59,-1943.25 436.72,-1941.95 434.79,-1939.03"></polygon>
</g>
<!-- n1_10&#45;&gt;n2_6 -->
<g id="edge85" class="edge">
<title>n1_10-&gt;n2_6</title>
<path fill="none" stroke="black" d="M1152.08,-1986.95C1143.12,-1969.69 1122.72,-1935.51 1094.55,-1919.38 1059.93,-1899.55 1045.52,-1909.27 1005.73,-1906.38 884.04,-1897.52 850.08,-1882.8 731.22,-1910.38 727.89,-1911.15 693.44,-1927.4 668.64,-1939.2"></path>
<polygon fill="black" stroke="black" points="667.59,-1937.77 663.83,-1941.5 669.09,-1940.93 667.59,-1937.77"></polygon>
</g>
<!-- n1_10&#45;&gt;n2_7 -->
<g id="edge97" class="edge">
<title>n1_10-&gt;n2_7</title>
<path fill="none" stroke="black" d="M1145.1,-1987.89C1120.62,-1969.29 1062.49,-1928.66 1005.73,-1915.38 947.37,-1901.71 878.08,-1924.02 840.7,-1939.18"></path>
<polygon fill="black" stroke="black" points="839.82,-1937.65 835.87,-1941.18 841.16,-1940.89 839.82,-1937.65"></polygon>
</g>
<!-- n1_10&#45;&gt;n2_8 -->
<g id="edge104" class="edge">
<title>n1_10-&gt;n2_8</title>
<path fill="none" stroke="black" d="M1137.28,-1990.41C1125.06,-1986.27 1109.01,-1981.12 1094.55,-1977.38 1062.54,-1969.08 1025.52,-1961.9 999.23,-1957.2"></path>
<polygon fill="black" stroke="black" points="999.35,-1955.44 994.12,-1956.29 998.74,-1958.89 999.35,-1955.44"></polygon>
</g>
<!-- n1_12 -->
<g id="node12" class="node">
<title>n1_12</title>
<ellipse fill="none" stroke="black" cx="1324.17" cy="-1997.38" rx="22.76" ry="10.71"></ellipse>
<text text-anchor="middle" x="1324.17" y="-1993.68" font-family="Times,serif" font-size="14.00">Judy</text>
</g>
<!-- n1_11&#45;&gt;n1_12 -->
<!-- n1_11&#45;&gt;n2_1 -->
<g id="edge37" class="edge">
<title>n1_11-&gt;n2_1</title>
<path fill="none" stroke="black" d="M1242.04,-1986.64C1234.1,-1843.48 1145.23,-316.38 964.79,-316.38 311.15,-316.38 311.15,-316.38 311.15,-316.38 218.96,-316.38 199.35,-375.59 160.89,-459.38 96.11,-600.54 74.27,-1782.67 71.71,-1935.19"></path>
<polygon fill="black" stroke="black" points="69.95,-1935.53 71.62,-1940.56 73.45,-1935.59 69.95,-1935.53"></polygon>
</g>
<!-- n1_11&#45;&gt;n2_5 -->
<g id="edge77" class="edge">
<title>n1_11-&gt;n2_5</title>
<path fill="none" stroke="black" d="M1242.38,-1986.52C1240.21,-1918.45 1218.68,-1548.62 1005.73,-1404.38 977.81,-1385.46 956.47,-1383.66 929.85,-1404.38 878.47,-1444.36 938.99,-1499.46 893.85,-1546.38 841.6,-1600.69 779.93,-1536.87 731.22,-1594.38 646.13,-1694.82 777.72,-1785.79 695.22,-1888.38 685.62,-1900.3 595.7,-1928.06 546.98,-1942.41"></path>
<polygon fill="black" stroke="black" points="546.42,-1940.76 542.11,-1943.85 547.41,-1944.11 546.42,-1940.76"></polygon>
</g>
<!-- n1_11&#45;&gt;n2_6 -->
<g id="edge86" class="edge">
<title>n1_11-&gt;n2_6</title>
<path fill="none" stroke="black" d="M1236.67,-1986.98C1227.6,-1972.02 1208.87,-1944.58 1185.7,-1929.38 1150.38,-1906.19 1136.09,-1910.08 1094.55,-1902.38 935.69,-1872.92 880.49,-1828.55 731.22,-1890.38 710.31,-1899.04 713.68,-1913.29 695.22,-1926.38 688.11,-1931.42 679.83,-1935.92 671.99,-1939.66"></path>
<polygon fill="black" stroke="black" points="670.97,-1938.2 667.18,-1941.89 672.45,-1941.38 670.97,-1938.2"></polygon>
</g>
<!-- n1_11&#45;&gt;n2_7 -->
<g id="edge98" class="edge">
<title>n1_11-&gt;n2_7</title>
<path fill="none" stroke="black" d="M1230.2,-1988.94C1205.54,-1972.63 1148.14,-1936.84 1094.55,-1919.38 1024.74,-1896.62 1002.03,-1892.9 929.85,-1906.38 912.55,-1909.61 870.3,-1926.89 841.78,-1939.07"></path>
<polygon fill="black" stroke="black" points="840.88,-1937.55 836.97,-1941.12 842.26,-1940.76 840.88,-1937.55"></polygon>
</g>
<!-- n1_13 -->
<g id="node13" class="node">
<title>n1_13</title>
<ellipse fill="none" stroke="black" cx="1421.69" cy="-1997.38" rx="38.78" ry="10.71"></ellipse>
<text text-anchor="middle" x="1421.69" y="-1993.68" font-family="Times,serif" font-size="14.00">Mallory</text>
</g>
<!-- n1_12&#45;&gt;n1_13 -->
<!-- n1_12&#45;&gt;n2_2 -->
<g id="edge50" class="edge">
<title>n1_12-&gt;n2_2</title>
<path fill="none" stroke="black" d="M1323.29,-1986.76C1324.46,-1866.56 1328.7,-762.27 1094.55,-568.38 1010.98,-499.17 975.58,-636.01 893.85,-707.38 680.17,-893.96 519.89,-844.73 387.04,-1095.38 321.69,-1218.69 424.21,-1603.53 351.04,-1722.38 330.11,-1756.39 299.37,-1737.15 273.26,-1767.38 228.68,-1818.99 209.25,-1901.11 202.76,-1935.46"></path>
<polygon fill="black" stroke="black" points="201,-1935.31 201.82,-1940.55 204.45,-1935.94 201,-1935.31"></polygon>
</g>
<!-- n1_12&#45;&gt;n2_4 -->
<g id="edge69" class="edge">
<title>n1_12-&gt;n2_4</title>
<path fill="none" stroke="black" d="M1323.38,-1986.45C1324.02,-1936.91 1322.98,-1728.96 1265.54,-1572.38 1242.84,-1510.49 1243.51,-1479.05 1185.7,-1447.38 871.26,-1275.11 703.88,-1554.92 476.78,-1832.38 445.8,-1870.23 471.89,-1898.63 440.78,-1936.38 439.56,-1937.87 438.14,-1939.24 436.61,-1940.5"></path>
<polygon fill="black" stroke="black" points="435.4,-1939.22 432.38,-1943.57 437.45,-1942.05 435.4,-1939.22"></polygon>
</g>
<!-- n1_12&#45;&gt;n2_5 -->
<g id="edge78" class="edge">
<title>n1_12-&gt;n2_5</title>
<path fill="none" stroke="black" d="M1322.65,-1986.34C1318.27,-1908.36 1280.7,-1441.73 1005.73,-1385.38 972.7,-1378.6 956.84,-1365.15 929.85,-1385.38 884.27,-1419.53 935.22,-1469.23 893.85,-1508.38 839.94,-1559.4 780.69,-1491.04 731.22,-1546.38 640.53,-1647.8 779.95,-1743.93 695.22,-1850.38 664.03,-1889.55 632.42,-1863.17 589.15,-1888.38 565.85,-1901.95 542.93,-1923.34 529.12,-1937.37"></path>
<polygon fill="black" stroke="black" points="527.7,-1936.31 525.47,-1941.11 530.21,-1938.75 527.7,-1936.31"></polygon>
</g>
<!-- n1_12&#45;&gt;n2_7 -->
<g id="edge99" class="edge">
<title>n1_12-&gt;n2_7</title>
<path fill="none" stroke="black" d="M1309.94,-1989.11C1275.87,-1968.41 1181.68,-1914.81 1094.55,-1898.38 1022.6,-1884.81 1000.33,-1874.54 929.85,-1894.38 911.8,-1899.45 910.49,-1907.72 893.85,-1916.38 877.85,-1924.7 859.44,-1932.82 844.28,-1939.15"></path>
<polygon fill="black" stroke="black" points="843.23,-1937.69 839.27,-1941.22 844.56,-1940.92 843.23,-1937.69"></polygon>
</g>
<!-- n1_14 -->
<g id="node14" class="node">
<title>n1_14</title>
<ellipse fill="none" stroke="black" cx="1522.03" cy="-1997.38" rx="25.41" ry="10.71"></ellipse>
<text text-anchor="middle" x="1522.03" y="-1993.68" font-family="Times,serif" font-size="14.00">Mike</text>
</g>
<!-- n1_13&#45;&gt;n1_14 -->
<!-- n1_13&#45;&gt;n2_1 -->
<g id="edge38" class="edge">
<title>n1_13-&gt;n2_1</title>
<path fill="none" stroke="black" d="M1420.58,-1986.53C1419.69,-1905.97 1411.56,-1392.35 1346.8,-981.38 1323.15,-831.32 1328.27,-787.73 1265.54,-649.38 1253.93,-623.77 1075.97,-278.38 964.79,-278.38 311.15,-278.38 311.15,-278.38 311.15,-278.38 240.04,-278.38 203.22,-276.23 160.89,-333.38 110.52,-401.38 75.81,-1771.27 71.83,-1935.35"></path>
<polygon fill="black" stroke="black" points="70.07,-1935.63 71.7,-1940.67 73.57,-1935.72 70.07,-1935.63"></polygon>
</g>
<!-- n1_13&#45;&gt;n2_2 -->
<g id="edge51" class="edge">
<title>n1_13-&gt;n2_2</title>
<path fill="none" stroke="black" d="M1420.18,-1986.73C1415.86,-1899.63 1382.44,-1295.24 1265.54,-821.38 1230.98,-681.28 1232.94,-586.25 1094.55,-545.38 1023.67,-524.44 985.58,-519.83 929.85,-568.38 895.18,-598.58 927.99,-634.57 893.85,-665.38 838.43,-715.39 789.53,-660.77 731.22,-707.38 703.89,-729.22 719.91,-752.6 695.22,-777.38 657.73,-814.99 635.04,-805.66 589.15,-832.38 537.68,-862.34 521.75,-866.33 476.78,-905.38 430.94,-945.19 409.88,-952.12 387.04,-1008.38 331.72,-1144.68 423.31,-1541.24 351.04,-1669.38 330.49,-1705.81 298.28,-1688.85 273.26,-1722.38 222.35,-1790.61 206.11,-1895.49 201.61,-1935.3"></path>
<polygon fill="black" stroke="black" points="199.82,-1935.53 201.03,-1940.69 203.3,-1935.9 199.82,-1935.53"></polygon>
</g>
<!-- n1_13&#45;&gt;n2_4 -->
<g id="edge70" class="edge">
<title>n1_13-&gt;n2_4</title>
<path fill="none" stroke="black" d="M1419.94,-1986.56C1416.48,-1940.06 1399.8,-1753.04 1346.8,-1610.38 1295.19,-1471.48 1241.17,-1413.8 1094.55,-1392.38 934.52,-1368.99 875.67,-1339.66 731.22,-1412.38 648.33,-1454.1 634.16,-1484.23 589.15,-1565.38 559.45,-1618.93 591.98,-1651.02 553.15,-1698.38 529.12,-1727.69 499.53,-1706.05 476.78,-1736.38 422.59,-1808.63 492.65,-1862.44 440.78,-1936.38 439.71,-1937.91 438.42,-1939.31 437,-1940.59"></path>
<polygon fill="black" stroke="black" points="435.89,-1939.23 433,-1943.66 438.03,-1942 435.89,-1939.23"></polygon>
</g>
<!-- n1_13&#45;&gt;n2_5 -->
<g id="edge79" class="edge">
<title>n1_13-&gt;n2_5</title>
<path fill="none" stroke="black" d="M1419.12,-1986.75C1409.58,-1925.74 1354.06,-1616.76 1185.7,-1447.38 1124.37,-1385.67 1092.3,-1379.06 1005.73,-1370.38 972.18,-1367.01 957.44,-1350.98 929.85,-1370.38 891.21,-1397.54 929.13,-1438.97 893.85,-1470.38 838.41,-1519.73 780.69,-1453.04 731.22,-1508.38 640.53,-1609.8 779.95,-1705.93 695.22,-1812.38 664.03,-1851.55 627.74,-1818.47 589.15,-1850.38 564.89,-1870.43 571.98,-1886.15 553.15,-1911.38 546.36,-1920.48 537.78,-1929.82 530.57,-1937.19"></path>
<polygon fill="black" stroke="black" points="529.01,-1936.28 526.73,-1941.06 531.49,-1938.75 529.01,-1936.28"></polygon>
</g>
<!-- n1_15 -->
<g id="node15" class="node">
<title>n1_15</title>
<ellipse fill="none" stroke="black" cx="1604.7" cy="-1997.38" rx="21.43" ry="10.71"></ellipse>
<text text-anchor="middle" x="1604.7" y="-1993.68" font-family="Times,serif" font-size="14.00">Niaj</text>
</g>
<!-- n1_14&#45;&gt;n1_15 -->
<!-- n1_14&#45;&gt;n2_1 -->
<g id="edge39" class="edge">
<title>n1_14-&gt;n2_1</title>
<path fill="none" stroke="black" d="M1520.96,-1986.73C1520.12,-1870.67 1511.28,-842.64 1460.58,-718.38 1393.99,-555.19 1196.52,-240.38 964.79,-240.38 311.15,-240.38 311.15,-240.38 311.15,-240.38 242.38,-240.38 204.75,-224.39 160.89,-277.38 105.02,-344.89 75.1,-1767.61 71.76,-1935.28"></path>
<polygon fill="black" stroke="black" points="70,-1935.68 71.65,-1940.71 73.5,-1935.75 70,-1935.68"></polygon>
</g>
<!-- n1_14&#45;&gt;n2_2 -->
<g id="edge52" class="edge">
<title>n1_14-&gt;n2_2</title>
<path fill="none" stroke="black" d="M1519.99,-1986.6C1514.93,-1934.85 1491.8,-1706.61 1460.58,-1521.38 1382.32,-1057.15 1560.06,-597.55 1094.55,-527.38 1086.35,-526.14 933.51,-523.86 929.85,-526.38 892.99,-551.73 926.96,-590.29 893.85,-620.38 838.34,-670.81 788.87,-617.41 731.22,-665.38 703.1,-688.77 722.45,-714.96 695.22,-739.38 657.94,-772.81 634.16,-755.43 589.15,-777.38 487.89,-826.76 435.23,-828.54 387.04,-930.38 323.08,-1065.55 416.98,-1468.15 351.04,-1602.38 330.93,-1643.33 297.38,-1630.64 273.26,-1669.38 217.26,-1759.33 203.91,-1890.9 200.9,-1935.74"></path>
<polygon fill="black" stroke="black" points="199.15,-1935.67 200.59,-1940.77 202.65,-1935.89 199.15,-1935.67"></polygon>
</g>
<!-- n1_14&#45;&gt;n2_4 -->
<g id="edge71" class="edge">
<title>n1_14-&gt;n2_4</title>
<path fill="none" stroke="black" d="M1520.86,-1986.73C1519.8,-1944.07 1512.4,-1781.94 1460.58,-1662.38 1364.37,-1440.41 1246.62,-1385.74 1005.73,-1363.38 884.25,-1352.09 845.6,-1318.91 731.22,-1361.38 711.42,-1368.72 713.42,-1381.67 695.22,-1392.38 651.92,-1417.84 621.01,-1392.55 589.15,-1431.38 523.79,-1511.02 614.06,-1577.28 553.15,-1660.38 530.74,-1690.95 499.11,-1667.73 476.78,-1698.38 413.79,-1784.84 500.99,-1847.94 440.78,-1936.38 439.73,-1937.93 438.46,-1939.34 437.05,-1940.62"></path>
<polygon fill="black" stroke="black" points="435.94,-1939.26 433.06,-1943.71 438.09,-1942.03 435.94,-1939.26"></polygon>
</g>
<!-- n1_14&#45;&gt;n2_6 -->
<g id="edge87" class="edge">
<title>n1_14-&gt;n2_6</title>
<path fill="none" stroke="black" d="M1518.89,-1986.67C1506.78,-1929.26 1440.96,-1656.59 1265.54,-1555.38 1099.47,-1459.55 1059.96,-1678.6 893.85,-1774.38 824.07,-1814.61 789.02,-1798.27 731.22,-1854.38 706.68,-1878.19 719.14,-1897.94 695.22,-1922.38 688.44,-1929.3 679.66,-1935.04 671.25,-1939.53"></path>
<polygon fill="black" stroke="black" points="670.28,-1938.06 666.63,-1941.9 671.87,-1941.18 670.28,-1938.06"></polygon>
</g>
<!-- n1_16 -->
<g id="node16" class="node">
<title>n1_16</title>
<ellipse fill="none" stroke="black" cx="1691.61" cy="-1997.38" rx="29.9" ry="10.71"></ellipse>
<text text-anchor="middle" x="1691.61" y="-1993.68" font-family="Times,serif" font-size="14.00">Olivia</text>
</g>
<!-- n1_15&#45;&gt;n1_16 -->
<!-- n1_15&#45;&gt;n2_1 -->
<g id="edge40" class="edge">
<title>n1_15-&gt;n2_1</title>
<path fill="none" stroke="black" d="M1603.67,-1986.7C1603.13,-1870.2 1594.62,-834.12 1460.58,-563.38 1339.64,-319.1 1237.37,-202.38 964.79,-202.38 311.15,-202.38 311.15,-202.38 311.15,-202.38 242.96,-202.38 205.33,-181.65 160.89,-233.38 102.24,-301.66 74.72,-1765.54 71.72,-1935.35"></path>
<polygon fill="black" stroke="black" points="69.97,-1935.4 71.63,-1940.43 73.47,-1935.46 69.97,-1935.4"></polygon>
</g>
<!-- n1_15&#45;&gt;n2_3 -->
<g id="edge59" class="edge">
<title>n1_15-&gt;n2_3</title>
<path fill="none" stroke="black" d="M1603.18,-1986.46C1597.69,-1875.77 1546.31,-956.75 1346.8,-795.38 1333.27,-784.44 1049.79,-789.69 1033.73,-796.38 1017.49,-803.14 1019.48,-813.38 1005.73,-824.38 974.57,-849.3 954.63,-841.1 929.85,-872.38 899.48,-910.71 929.23,-942.6 893.85,-976.38 839.34,-1028.42 786.47,-973.13 731.22,-1024.38 698.11,-1055.08 712.52,-1077.67 695.22,-1119.38 552.82,-1462.62 516.08,-1548.43 351.04,-1881.38 341.56,-1900.51 329.72,-1922.05 321.82,-1936.12"></path>
<polygon fill="black" stroke="black" points="320.23,-1935.38 319.3,-1940.59 323.28,-1937.09 320.23,-1935.38"></polygon>
</g>
<!-- n1_17 -->
<g id="node17" class="node">
<title>n1_17</title>
<ellipse fill="none" stroke="black" cx="1787.01" cy="-1997.38" rx="29.9" ry="10.71"></ellipse>
<text text-anchor="middle" x="1787.01" y="-1993.68" font-family="Times,serif" font-size="14.00">Oscar</text>
</g>
<!-- n1_16&#45;&gt;n1_17 -->
<!-- n1_16&#45;&gt;n2_1 -->
<g id="edge41" class="edge">
<title>n1_16-&gt;n2_1</title>
<path fill="none" stroke="black" d="M1690.32,-1986.61C1686.7,-1862.29 1647.99,-697.46 1460.58,-419.38 1322.1,-213.9 1212.58,-164.38 964.79,-164.38 311.15,-164.38 311.15,-164.38 311.15,-164.38 243.14,-164.38 205.51,-142.04 160.89,-193.38 100.41,-262.97 74.46,-1764.25 71.7,-1935.51"></path>
<polygon fill="black" stroke="black" points="69.95,-1935.59 71.62,-1940.61 73.45,-1935.64 69.95,-1935.59"></polygon>
</g>
<!-- n1_16&#45;&gt;n2_4 -->
<g id="edge72" class="edge">
<title>n1_16-&gt;n2_4</title>
<path fill="none" stroke="black" d="M1687.95,-1986.7C1673.73,-1931.5 1602,-1675 1460.58,-1521.38 1281.03,-1326.34 1158.51,-1350.7 893.85,-1335.38 821.69,-1331.2 801.92,-1320.37 731.22,-1335.38 714.09,-1339.01 711.39,-1344.66 695.22,-1351.38 648.54,-1370.76 620.88,-1353.03 589.15,-1392.38 524.2,-1472.92 614.29,-1538.9 553.15,-1622.38 530.75,-1652.96 498.79,-1629.51 476.78,-1660.38 404.97,-1761.1 509.35,-1833.41 440.78,-1936.38 439.74,-1937.94 438.48,-1939.36 437.08,-1940.64"></path>
<polygon fill="black" stroke="black" points="435.98,-1939.29 433.11,-1943.74 438.13,-1942.05 435.98,-1939.29"></polygon>
</g>
<!-- n1_16&#45;&gt;n2_6 -->
<g id="edge88" class="edge">
<title>n1_16-&gt;n2_6</title>
<path fill="none" stroke="black" d="M1685.07,-1986.94C1661.8,-1943.7 1568.22,-1775.66 1460.58,-1662.38 1388.65,-1586.68 1366.09,-1559.55 1265.54,-1531.38 1231.33,-1521.79 1221.22,-1528.27 1185.7,-1527.38 1161.19,-1526.76 1154.46,-1521.98 1130.55,-1527.38 1084.07,-1537.85 1072.72,-1545.99 1033.73,-1573.38 980.53,-1610.75 969.97,-1625.21 929.85,-1676.38 910.66,-1700.85 918.98,-1718.06 893.85,-1736.38 833.87,-1780.1 783.94,-1722.13 731.22,-1774.38 683.13,-1822.03 736.21,-1868.5 695.22,-1922.38 689.62,-1929.74 681.58,-1935.49 673.49,-1939.87"></path>
<polygon fill="black" stroke="black" points="672.66,-1938.33 669,-1942.16 674.25,-1941.44 672.66,-1938.33"></polygon>
</g>
<!-- n1_16&#45;&gt;n2_8 -->
<g id="edge105" class="edge">
<title>n1_16-&gt;n2_8</title>
<path fill="none" stroke="black" d="M1670.83,-1989.79C1658.19,-1985.31 1641.33,-1980.01 1625.92,-1977.38 1391.78,-1937.29 1104.5,-1945 1002.72,-1949.45"></path>
<polygon fill="black" stroke="black" points="1002.35,-1947.71 997.44,-1949.68 1002.51,-1951.21 1002.35,-1947.71"></polygon>
</g>
<!-- n1_18 -->
<g id="node18" class="node">
<title>n1_18</title>
<ellipse fill="none" stroke="black" cx="1883.82" cy="-1997.38" rx="31.23" ry="10.71"></ellipse>
<text text-anchor="middle" x="1883.82" y="-1993.68" font-family="Times,serif" font-size="14.00">Peggy</text>
</g>
<!-- n1_17&#45;&gt;n1_18 -->
<!-- n1_17&#45;&gt;n2_4 -->
<g id="edge73" class="edge">
<title>n1_17-&gt;n2_4</title>
<path fill="none" stroke="black" d="M1785.61,-1986.54C1782.7,-1909.96 1763.61,-1452.23 1721.31,-1409.38 1461.57,-1146.23 1263.38,-1336.02 893.85,-1323.38 825.9,-1321.05 636.23,-1302.31 589.15,-1351.38 516.6,-1426.98 614.98,-1499.78 553.15,-1584.38 530.78,-1614.98 498.55,-1591.34 476.78,-1622.38 396.13,-1737.38 517.74,-1818.86 440.78,-1936.38 439.76,-1937.94 438.5,-1939.37 437.11,-1940.66"></path>
<polygon fill="black" stroke="black" points="436,-1939.3 433.15,-1943.77 438.16,-1942.06 436,-1939.3"></polygon>
</g>
<!-- n1_17&#45;&gt;n2_6 -->
<g id="edge89" class="edge">
<title>n1_17-&gt;n2_6</title>
<path fill="none" stroke="black" d="M1785.6,-1986.66C1782.63,-1912.87 1763.56,-1481.97 1721.31,-1444.38 1587.7,-1325.49 1044.43,-1453.05 929.85,-1590.38 897.44,-1629.23 931.24,-1664.29 893.85,-1698.38 839,-1748.39 782.69,-1682.89 731.22,-1736.38 672.83,-1797.05 744.6,-1854.18 695.22,-1922.38 689.84,-1929.8 681.96,-1935.55 673.94,-1939.91"></path>
<polygon fill="black" stroke="black" points="673.14,-1938.35 669.49,-1942.19 674.74,-1941.47 673.14,-1938.35"></polygon>
</g>
<!-- n1_17&#45;&gt;n2_7 -->
<g id="edge100" class="edge">
<title>n1_17-&gt;n2_7</title>
<path fill="none" stroke="black" d="M1786.29,-1986.55C1787.53,-1913.51 1784.16,-1490.68 1547.49,-1323.38 1529.01,-1310.31 1515.34,-1310.73 1496.58,-1323.38 1461.2,-1347.23 1488.1,-1379.77 1460.58,-1412.38 1434.37,-1443.42 1412.93,-1433.13 1382.8,-1460.38 1363.28,-1478.02 1364.46,-1487.88 1346.8,-1507.38 1180.23,-1691.18 1108.5,-1706.29 929.85,-1878.38 913.1,-1894.52 912.9,-1903.02 893.85,-1916.38 880.09,-1926.03 863.24,-1933.87 848.54,-1939.66"></path>
<polygon fill="black" stroke="black" points="847.68,-1938.12 843.64,-1941.55 848.94,-1941.39 847.68,-1938.12"></polygon>
</g>
<!-- n1_19 -->
<g id="node19" class="node">
<title>n1_19</title>
<ellipse fill="none" stroke="black" cx="1986.29" cy="-1997.38" rx="35.21" ry="10.71"></ellipse>
<text text-anchor="middle" x="1986.29" y="-1993.68" font-family="Times,serif" font-size="14.00">Rupert</text>
</g>
<!-- n1_18&#45;&gt;n1_19 -->
<!-- n1_18&#45;&gt;n2_1 -->
<g id="edge42" class="edge">
<title>n1_18-&gt;n2_1</title>
<path fill="none" stroke="black" d="M1882.86,-1986.68C1883.16,-1876.09 1883.68,-939.84 1816.71,-670.38 1792.57,-573.24 1788.18,-540.85 1721.31,-466.38 1540.31,-264.8 1448.99,-239.18 1185.7,-175.38 1087.96,-151.69 1065.36,-126.38 964.79,-126.38 311.15,-126.38 311.15,-126.38 311.15,-126.38 243.14,-126.38 205.48,-104.02 160.89,-155.38 99.14,-226.51 74.32,-1760.21 71.68,-1935.17"></path>
<polygon fill="black" stroke="black" points="69.93,-1935.36 71.61,-1940.38 73.43,-1935.41 69.93,-1935.36"></polygon>
</g>
<!-- n1_18&#45;&gt;n2_2 -->
<g id="edge53" class="edge">
<title>n1_18-&gt;n2_2</title>
<path fill="none" stroke="black" d="M1882.95,-1986.5C1884.18,-1858.49 1888.92,-639.32 1625.92,-434.38 1595.18,-410.43 963.49,-500.71 929.85,-520.38 906.83,-533.84 915.58,-552.92 893.85,-568.38 832.02,-612.37 787.71,-569.71 731.22,-620.38 701.89,-646.68 724.09,-674.57 695.22,-701.38 658.52,-735.45 635.63,-720.74 589.15,-739.38 538.42,-759.72 524.55,-762.79 476.78,-789.38 434.64,-812.83 410.77,-808.39 387.04,-850.38 315.22,-977.49 403.55,-1370.15 351.04,-1506.38 331.29,-1557.62 296.84,-1552.78 273.26,-1602.38 216.58,-1721.59 203.55,-1884.34 200.78,-1935.39"></path>
<polygon fill="black" stroke="black" points="199.02,-1935.43 200.51,-1940.52 202.52,-1935.61 199.02,-1935.43"></polygon>
</g>
<!-- n1_18&#45;&gt;n2_5 -->
<g id="edge80" class="edge">
<title>n1_18-&gt;n2_5</title>
<path fill="none" stroke="black" d="M1882.02,-1986.71C1874.06,-1883.95 1805.62,-1070.01 1625.92,-928.38 1611.11,-916.7 1600.57,-920.4 1583.49,-928.38 1560.91,-938.92 1564.31,-952.98 1547.49,-971.38 1525.87,-995.01 1518.06,-998.62 1496.58,-1022.38 1479.63,-1041.12 1480.02,-1050.24 1460.58,-1066.38 1253.71,-1238.01 1114.36,-1160.9 929.85,-1356.38 904.2,-1383.56 922.94,-1408.9 893.85,-1432.38 836.09,-1478.99 780.69,-1415.04 731.22,-1470.38 640.53,-1571.8 779.95,-1667.93 695.22,-1774.38 664.03,-1813.55 624.64,-1777.05 589.15,-1812.38 555.97,-1845.4 577.58,-1871.43 553.15,-1911.38 547.31,-1920.93 538.94,-1930.18 531.62,-1937.38"></path>
<polygon fill="black" stroke="black" points="530.08,-1936.43 527.69,-1941.16 532.51,-1938.96 530.08,-1936.43"></polygon>
</g>
<!-- n1_20 -->
<g id="node20" class="node">
<title>n1_20</title>
<ellipse fill="none" stroke="black" cx="2083.81" cy="-1997.38" rx="26.33" ry="10.71"></ellipse>
<text text-anchor="middle" x="2083.81" y="-1993.68" font-family="Times,serif" font-size="14.00">Sybil</text>
</g>
<!-- n1_19&#45;&gt;n1_20 -->
<!-- n1_19&#45;&gt;n2_1 -->
<g id="edge43" class="edge">
<title>n1_19-&gt;n2_1</title>
<path fill="none" stroke="black" d="M1985.17,-1986.65C1983.81,-1865.26 1969.8,-751.74 1914.93,-617.38 1865.95,-497.41 1817.12,-486.63 1721.31,-399.38 1650.38,-334.78 1628.28,-323.12 1547.49,-271.38 1510.33,-247.58 1501.47,-239.96 1460.58,-223.38 1248.94,-137.56 1193.16,-88.38 964.79,-88.38 311.15,-88.38 311.15,-88.38 311.15,-88.38 243.14,-88.38 205.46,-65.99 160.89,-117.38 97.81,-190.11 74.13,-1759.38 71.66,-1935.37"></path>
<polygon fill="black" stroke="black" points="69.91,-1935.58 71.59,-1940.6 73.41,-1935.63 69.91,-1935.58"></polygon>
</g>
<!-- n1_19&#45;&gt;n2_2 -->
<g id="edge54" class="edge">
<title>n1_19-&gt;n2_2</title>
<path fill="none" stroke="black" d="M1985.23,-1986.54C1984.62,-1883.71 1977.82,-1078.51 1914.93,-847.38 1855.25,-628.02 1848.58,-471.2 1625.92,-425.38 1473.58,-394.03 1080.88,-461.23 929.85,-498.38 838.96,-520.73 798.18,-502.97 731.22,-568.38 698.92,-599.93 727.43,-631.74 695.22,-663.38 659.49,-698.46 635.77,-683.09 589.15,-701.38 538.6,-721.21 525.34,-725.05 476.78,-749.38 435.57,-770.02 411.35,-762.21 387.04,-801.38 322.34,-905.64 383.36,-1234 351.04,-1352.38 330.85,-1426.35 297.04,-1433.48 273.26,-1506.38 220.33,-1668.62 204.48,-1877.18 200.94,-1935.57"></path>
<polygon fill="black" stroke="black" points="199.18,-1935.65 200.63,-1940.75 202.68,-1935.86 199.18,-1935.65"></polygon>
</g>
<!-- n1_19&#45;&gt;n2_3 -->
<g id="edge60" class="edge">
<title>n1_19-&gt;n2_3</title>
<path fill="none" stroke="black" d="M1985.12,-1986.59C1983.03,-1866.8 1957.66,-785.77 1721.31,-605.38 1624.64,-531.59 1576.41,-651.34 1460.58,-688.38 1275.08,-747.68 1220.62,-732.62 1033.73,-787.38 986.7,-801.16 963.87,-789.1 929.85,-824.38 892.97,-862.62 932.83,-902.27 893.85,-938.38 839.4,-988.82 786.28,-926.6 731.22,-976.38 694.62,-1009.46 729.86,-1046.25 695.22,-1081.38 660.05,-1117.03 624.43,-1083.84 589.15,-1119.38 397.7,-1312.19 458.09,-1434.11 387.04,-1696.38 365.14,-1777.23 379.31,-1802.52 351.04,-1881.38 343.84,-1901.48 331.53,-1922.82 322.9,-1936.58"></path>
<polygon fill="black" stroke="black" points="321.33,-1935.78 320.12,-1940.94 324.28,-1937.66 321.33,-1935.78"></polygon>
</g>
<!-- n1_19&#45;&gt;n2_5 -->
<g id="edge81" class="edge">
<title>n1_19-&gt;n2_5</title>
<path fill="none" stroke="black" d="M1983.85,-1986.73C1974.12,-1916.21 1915.54,-1509.47 1816.71,-1191.38 1772.57,-1049.32 1770.79,-950.13 1625.92,-916.38 1607.55,-912.1 1601.6,-911.13 1583.49,-916.38 1539.58,-929.1 1529.56,-939.73 1496.58,-971.38 1476.29,-990.84 1481.81,-1004.95 1460.58,-1023.38 1410.95,-1066.45 972.76,-1234.6 929.85,-1284.38 896.26,-1323.34 931.77,-1359.61 893.85,-1394.38 839.14,-1444.54 780.69,-1377.04 731.22,-1432.38 640.53,-1533.8 779.95,-1629.93 695.22,-1736.38 664.03,-1775.55 622.99,-1737.46 589.15,-1774.38 546.61,-1820.79 583.5,-1856.22 553.15,-1911.38 547.75,-1921.19 539.42,-1930.46 532.01,-1937.61"></path>
<polygon fill="black" stroke="black" points="530.47,-1936.65 528.01,-1941.34 532.86,-1939.21 530.47,-1936.65"></polygon>
</g>
<!-- n1_21 -->
<g id="node21" class="node">
<title>n1_21</title>
<ellipse fill="none" stroke="black" cx="2174.26" cy="-1997.38" rx="28.07" ry="10.71"></ellipse>
<text text-anchor="middle" x="2174.26" y="-1993.68" font-family="Times,serif" font-size="14.00">Trent</text>
</g>
<!-- n1_20&#45;&gt;n1_21 -->
<!-- n1_20&#45;&gt;n2_1 -->
<g id="edge44" class="edge">
<title>n1_20-&gt;n2_1</title>
<path fill="none" stroke="black" d="M2082.83,-1986.55C2082.9,-1866.17 2078.97,-777.41 1914.93,-509.38 1855.92,-412.94 1812.47,-411.25 1721.31,-344.38 1430.46,-131 1325.52,-50.38 964.79,-50.38 311.15,-50.38 311.15,-50.38 311.15,-50.38 243.14,-50.38 205.43,-27.97 160.89,-79.38 96.51,-153.69 73.96,-1756.98 71.65,-1935.3"></path>
<polygon fill="black" stroke="black" points="69.9,-1935.36 71.58,-1940.38 73.4,-1935.4 69.9,-1935.36"></polygon>
</g>
<!-- n1_20&#45;&gt;n2_3 -->
<g id="edge61" class="edge">
<title>n1_20-&gt;n2_3</title>
<path fill="none" stroke="black" d="M2082.81,-1986.76C2082.55,-1899.9 2074.87,-1298.03 1914.93,-847.38 1865.55,-708.21 1863.04,-618.82 1721.31,-577.38 1662.42,-560.16 1642.33,-567.97 1583.49,-585.38 1524.63,-602.79 1517.88,-626.37 1460.58,-648.38 1403.62,-670.25 974.14,-747.41 929.85,-789.38 892.2,-825.05 932.03,-865.28 893.85,-900.38 839.2,-950.61 786.28,-888.6 731.22,-938.38 694.62,-971.46 729.86,-1008.25 695.22,-1043.38 660.05,-1079.03 634.02,-1059.14 589.15,-1081.38 535.79,-1107.82 513.63,-1107.58 476.78,-1154.38 447.04,-1192.15 457.85,-1211.43 440.78,-1256.38 418.29,-1315.59 401.47,-1326.7 387.04,-1388.38 337.01,-1602.3 412.71,-1670.51 351.04,-1881.38 345.12,-1901.63 332.78,-1922.64 323.78,-1936.28"></path>
<polygon fill="black" stroke="black" points="322.21,-1935.49 320.88,-1940.62 325.11,-1937.44 322.21,-1935.49"></polygon>
</g>
<!-- n1_20&#45;&gt;n2_7 -->
<g id="edge101" class="edge">
<title>n1_20-&gt;n2_7</title>
<path fill="none" stroke="black" d="M2081.66,-1986.65C2070.92,-1888.21 1984.49,-1142.78 1816.71,-1014.38 1795.74,-998.33 1781.38,-1003.53 1757.31,-1014.38 1677.55,-1050.33 1544.94,-1236.47 1496.58,-1309.38 1476.14,-1340.19 1488.02,-1359.6 1460.58,-1384.38 1433.31,-1409 1410.62,-1388.38 1382.8,-1412.38 1357.2,-1434.45 1369.96,-1454.75 1346.8,-1479.38 1330.59,-1496.6 1319,-1491.42 1301.54,-1507.38 1281.86,-1525.37 1284.43,-1536.55 1265.54,-1555.38 1257.31,-1563.58 936.63,-1795.93 929.85,-1805.38 899.63,-1847.52 928.7,-1877.96 893.85,-1916.38 884.02,-1927.21 870.24,-1934.85 856.86,-1940.16"></path>
<polygon fill="black" stroke="black" points="856.02,-1938.6 851.96,-1942.01 857.26,-1941.88 856.02,-1938.6"></polygon>
</g>
<!-- n1_20&#45;&gt;n2_8 -->
<g id="edge106" class="edge">
<title>n1_20-&gt;n2_8</title>
<path fill="none" stroke="black" d="M2064.67,-1990.05C2052.67,-1985.56 2036.47,-1980.15 2021.65,-1977.38 1690.94,-1915.58 1601.94,-1945.52 1265.54,-1941.38 1264,-1941.36 1061.76,-1940.41 1033.73,-1942.38 1022.66,-1943.15 1010.65,-1944.53 999.8,-1945.98"></path>
<polygon fill="black" stroke="black" points="999.29,-1944.29 994.58,-1946.7 999.77,-1947.75 999.29,-1944.29"></polygon>
</g>
<!-- n1_22 -->
<g id="node22" class="node">
<title>n1_22</title>
<ellipse fill="none" stroke="black" cx="2268.95" cy="-1997.38" rx="30.31" ry="10.71"></ellipse>
<text text-anchor="middle" x="2268.95" y="-1993.68" font-family="Times,serif" font-size="14.00">Trudy</text>
</g>
<!-- n1_21&#45;&gt;n1_22 -->
<!-- n1_21&#45;&gt;n2_3 -->
<g id="edge62" class="edge">
<title>n1_21-&gt;n2_3</title>
<path fill="none" stroke="black" d="M2172.51,-1986.62C2168.32,-1927.15 2146.52,-1632.64 2109.97,-1394.38 2048.14,-991.36 2126.19,-611.49 1721.31,-563.38 1660.45,-556.14 1643.81,-557.52 1583.49,-568.38 1527.34,-578.48 1515.37,-589.49 1460.58,-605.38 1431.18,-613.9 952,-732.25 929.85,-753.38 892.94,-788.59 931.5,-827.95 893.85,-862.38 839.07,-912.46 786.28,-850.6 731.22,-900.38 694.62,-933.46 729.86,-970.25 695.22,-1005.38 660.05,-1041.03 635.63,-1024.74 589.15,-1043.38 538.42,-1063.72 512.81,-1052.26 476.78,-1093.38 439.53,-1135.9 472.85,-1168.81 440.78,-1215.38 423.75,-1240.12 401.14,-1229.84 387.04,-1256.38 321.78,-1379.24 389.07,-1747.55 351.04,-1881.38 345.28,-1901.68 332.9,-1922.67 323.86,-1936.31"></path>
<polygon fill="black" stroke="black" points="322.28,-1935.51 320.93,-1940.63 325.18,-1937.47 322.28,-1935.51"></polygon>
</g>
<!-- n1_21&#45;&gt;n2_6 -->
<g id="edge90" class="edge">
<title>n1_21-&gt;n2_6</title>
<path fill="none" stroke="black" d="M2171.92,-1986.58C2163.51,-1919.96 2115.09,-1558.53 2021.65,-1278.38 1972.96,-1132.42 1966.32,-1035.26 1816.71,-999.38 1791.04,-993.22 1782.35,-991.01 1757.31,-999.38 1649.02,-1035.58 1439.16,-1241.25 1346.8,-1308.38 1311.11,-1334.31 1303.56,-1343 1265.54,-1365.38 1194.07,-1407.43 982.8,-1464.55 929.85,-1528.38 891.03,-1575.18 937.63,-1618.17 893.85,-1660.38 840.41,-1711.89 781.83,-1644.08 731.22,-1698.38 662.46,-1772.13 753.05,-1839.78 695.22,-1922.38 689.96,-1929.88 682.11,-1935.66 674.09,-1940.02"></path>
<polygon fill="black" stroke="black" points="673.3,-1938.46 669.64,-1942.29 674.89,-1941.58 673.3,-1938.46"></polygon>
</g>
<!-- n1_23 -->
<g id="node23" class="node">
<title>n1_23</title>
<ellipse fill="none" stroke="black" cx="2365.76" cy="-1997.38" rx="30.31" ry="10.71"></ellipse>
<text text-anchor="middle" x="2365.76" y="-1993.68" font-family="Times,serif" font-size="14.00">Victor</text>
</g>
<!-- n1_22&#45;&gt;n1_23 -->
<!-- n1_22&#45;&gt;n2_4 -->
<g id="edge74" class="edge">
<title>n1_22-&gt;n2_4</title>
<path fill="none" stroke="black" d="M2267.89,-1986.47C2267.07,-1865.28 2253.2,-771.25 2021.65,-576.38 1997.6,-556.14 1980.57,-565.92 1950.93,-576.38 1931.56,-583.21 1932.84,-595.3 1914.93,-605.38 1850.01,-641.91 1825.04,-631.35 1757.31,-662.38 1265,-887.89 1170.71,-1000.27 695.22,-1259.38 648.41,-1284.88 620.02,-1271.92 589.15,-1315.38 527.2,-1402.6 619.39,-1469.37 553.15,-1553.38 530.47,-1582.14 498.76,-1555.07 476.78,-1584.38 382.42,-1710.18 526.13,-1804.29 440.78,-1936.38 439.77,-1937.95 438.52,-1939.38 437.13,-1940.67"></path>
<polygon fill="black" stroke="black" points="436.02,-1939.32 433.18,-1943.79 438.19,-1942.07 436.02,-1939.32"></polygon>
</g>
<!-- n1_22&#45;&gt;n2_8 -->
<g id="edge107" class="edge">
<title>n1_22-&gt;n2_8</title>
<path fill="none" stroke="black" d="M2247,-1989.86C2234.29,-1985.58 2217.66,-1980.47 2202.54,-1977.38 2076.59,-1951.57 2042.86,-1959.13 1914.93,-1946.38 1525.2,-1907.52 1423.04,-1893.44 1033.73,-1936.38 1020.95,-1937.79 1007.06,-1940.56 995.11,-1943.35"></path>
<polygon fill="black" stroke="black" points="994.58,-1941.68 990.12,-1944.54 995.39,-1945.08 994.58,-1941.68"></polygon>
</g>
<!-- n1_24 -->
<g id="node24" class="node">
<title>n1_24</title>
<ellipse fill="none" stroke="black" cx="2466.1" cy="-1997.38" rx="33.88" ry="10.71"></ellipse>
<text text-anchor="middle" x="2466.1" y="-1993.68" font-family="Times,serif" font-size="14.00">Walter</text>
</g>
<!-- n1_23&#45;&gt;n1_24 -->
<!-- n1_23&#45;&gt;n2_2 -->
<g id="edge55" class="edge">
<title>n1_23-&gt;n2_2</title>
<path fill="none" stroke="black" d="M2364.47,-1986.51C2361.79,-1886.71 2340.26,-1127.83 2299.35,-904.38 2248.45,-626.39 2337.62,-464.82 2109.97,-297.38 2091.24,-283.6 2080.83,-295.59 2057.65,-297.38 1908.95,-308.8 868.78,-444.79 731.22,-502.38 555.36,-575.99 488.35,-596.88 387.04,-758.38 369.19,-786.84 278.46,-1319.18 273.26,-1352.38 268.59,-1382.19 213.04,-1843.57 201.99,-1935.51"></path>
<polygon fill="black" stroke="black" points="200.24,-1935.39 201.38,-1940.56 203.71,-1935.8 200.24,-1935.39"></polygon>
</g>
<!-- n1_23&#45;&gt;n2_3 -->
<g id="edge63" class="edge">
<title>n1_23-&gt;n2_3</title>
<path fill="none" stroke="black" d="M2364.33,-1986.67C2359.95,-1881.63 2321.21,-1034.54 2202.54,-816.38 2086.17,-602.45 1964.5,-567.09 1721.31,-554.38 1660.13,-551.18 1644.42,-550.98 1583.49,-557.38 1509.02,-565.19 984.85,-670.57 929.85,-721.38 894.23,-754.28 929.92,-791.96 893.85,-824.38 838.64,-873.99 786.28,-812.6 731.22,-862.38 694.62,-895.46 729.86,-932.25 695.22,-967.38 660.05,-1003.03 635.97,-987.62 589.15,-1005.38 538.85,-1024.45 513.04,-1010.63 476.78,-1050.38 438.97,-1091.83 471.86,-1124.66 440.78,-1171.38 423.69,-1197.08 401.01,-1187.85 387.04,-1215.38 320,-1347.56 391.3,-1738.73 351.04,-1881.38 345.31,-1901.69 332.93,-1922.68 323.88,-1936.31"></path>
<polygon fill="black" stroke="black" points="322.3,-1935.52 320.95,-1940.64 325.2,-1937.48 322.3,-1935.52"></polygon>
</g>
<!-- n1_23&#45;&gt;n2_6 -->
<g id="edge91" class="edge">
<title>n1_23-&gt;n2_6</title>
<path fill="none" stroke="black" d="M2363.13,-1986.58C2350.63,-1906.58 2263.72,-1400.21 2021.65,-1083.38 1960.81,-1003.75 1916.55,-997.95 1816.71,-989.38 1747.48,-983.43 1724.84,-981.89 1661.92,-1011.38 1611.03,-1035.22 1506.91,-1132.58 1460.58,-1164.38 1427.08,-1187.36 1412.79,-1184.98 1382.8,-1212.38 1363.1,-1230.36 1365.95,-1241.82 1346.8,-1260.38 1315.11,-1291.07 1303.65,-1295.15 1265.54,-1317.38 1231.59,-1337.17 1221.31,-1338.76 1185.7,-1355.38 1171.54,-1361.98 939.79,-1460.31 929.85,-1472.38 886.28,-1525.31 942.48,-1574.04 893.85,-1622.38 841.21,-1674.71 781.21,-1605.51 731.22,-1660.38 652.06,-1747.26 761.53,-1825.33 695.22,-1922.38 690.19,-1929.73 682.66,-1935.42 674.87,-1939.73"></path>
<polygon fill="black" stroke="black" points="673.65,-1938.39 670.01,-1942.24 675.26,-1941.5 673.65,-1938.39"></polygon>
</g>
<!-- n1_25 -->
<g id="node25" class="node">
<title>n1_25</title>
<ellipse fill="none" stroke="black" cx="2570.69" cy="-1997.38" rx="34.8" ry="10.71"></ellipse>
<text text-anchor="middle" x="2570.69" y="-1993.68" font-family="Times,serif" font-size="14.00">Wendy</text>
</g>
<!-- n1_24&#45;&gt;n1_25 -->
<!-- n1_24&#45;&gt;n2_5 -->
<g id="edge82" class="edge">
<title>n1_24-&gt;n2_5</title>
<path fill="none" stroke="black" d="M2463.53,-1986.78C2455.24,-1931.19 2416.23,-1672.77 2396.16,-1594.38 2339.42,-1372.72 2340.88,-1299.61 2202.54,-1117.38 2037.72,-900.26 1897.68,-929.61 1625.92,-908.38 1567.92,-903.84 1545.5,-896.91 1496.58,-928.38 1474.45,-942.61 1480.86,-958.61 1460.58,-975.38 1416.98,-1011.41 1397.53,-1007.38 1346.8,-1032.38 1335.25,-1038.06 938.17,-1224.56 929.85,-1234.38 893.29,-1277.5 934.96,-1317.56 893.85,-1356.38 839.88,-1407.34 780.69,-1339.04 731.22,-1394.38 640.53,-1495.8 779.95,-1591.93 695.22,-1698.38 664.03,-1737.55 621.97,-1698.56 589.15,-1736.38 537.1,-1796.34 589.53,-1840.79 553.15,-1911.38 548.09,-1921.19 539.94,-1930.35 532.56,-1937.42"></path>
<polygon fill="black" stroke="black" points="531.04,-1936.45 528.56,-1941.13 533.42,-1939.01 531.04,-1936.45"></polygon>
</g>
<!-- n1_24&#45;&gt;n2_6 -->
<g id="edge92" class="edge">
<title>n1_24-&gt;n2_6</title>
<path fill="none" stroke="black" d="M2461.96,-1986.77C2446.21,-1933.85 2373.59,-1693.15 2299.35,-1501.38 2209.26,-1268.66 2230.77,-1149.54 2021.65,-1013.38 1944.39,-963.08 1908.84,-984.65 1816.71,-981.38 1747.93,-978.93 1728.12,-966.58 1661.92,-985.38 1623.47,-996.29 1617.53,-1008.43 1583.49,-1029.38 1491.94,-1085.72 1468.92,-1100.04 1382.8,-1164.38 1291.73,-1232.4 1283.08,-1268.74 1185.7,-1327.38 1123.06,-1365.09 1100.24,-1360.01 1033.73,-1390.38 1021.08,-1396.15 1018.5,-1398.85 1005.73,-1404.38 972.74,-1418.66 953.69,-1405.47 929.85,-1432.38 883.82,-1484.34 943.02,-1535.36 893.85,-1584.38 841.28,-1636.78 780.74,-1567.08 731.22,-1622.38 641.63,-1722.41 770.03,-1810.85 695.22,-1922.38 690.26,-1929.77 682.74,-1935.47 674.96,-1939.79"></path>
<polygon fill="black" stroke="black" points="673.74,-1938.45 670.1,-1942.29 675.34,-1941.56 673.74,-1938.45"></polygon>
</g>
<!-- n1_25&#45;&gt;n2_1 -->
<g id="edge45" class="edge">
<title>n1_25-&gt;n2_1</title>
<path fill="none" stroke="black" d="M2569.5,-1986.71C2568.06,-1916.06 2557.5,-1508.23 2500.04,-1182.38 2440.65,-845.52 2456.56,-743.17 2299.35,-439.38 2013.14,113.71 1587.55,-12.38 964.79,-12.38 311.15,-12.38 311.15,-12.38 311.15,-12.38 243.14,-12.38 205.41,10.05 160.89,-41.38 95.18,-117.3 73.78,-1756.39 71.63,-1935.53"></path>
<polygon fill="black" stroke="black" points="69.88,-1935.6 71.57,-1940.62 73.38,-1935.64 69.88,-1935.6"></polygon>
</g>
<!-- n1_25&#45;&gt;n2_3 -->
<g id="edge64" class="edge">
<title>n1_25-&gt;n2_3</title>
<path fill="none" stroke="black" d="M2569.43,-1986.77C2566.59,-1890.51 2534.29,-1161.5 2202.54,-723.38 2065.06,-541.82 1948.97,-553.34 1721.31,-547.38 1570.43,-543.42 1531.16,-546.65 1382.8,-574.38 1281.03,-593.39 1007.58,-614.99 929.85,-683.38 896.89,-712.38 926.12,-745.6 893.85,-775.38 838.37,-826.57 784.88,-771.28 731.22,-824.38 693.14,-862.04 733.94,-902.37 695.22,-939.38 659.97,-973.06 635.56,-952.42 589.15,-967.38 538.26,-983.78 512.75,-970.81 476.78,-1010.38 436.46,-1054.74 477.49,-1092.97 440.78,-1140.38 423.9,-1162.18 401.44,-1147.86 387.04,-1171.38 345.82,-1238.75 372.37,-1805.32 351.04,-1881.38 345.34,-1901.7 332.96,-1922.69 323.89,-1936.31"></path>
<polygon fill="black" stroke="black" points="322.32,-1935.52 320.96,-1940.64 325.21,-1937.49 322.32,-1935.52"></polygon>
</g>
<!-- n1_25&#45;&gt;n2_5 -->
<g id="edge83" class="edge">
<title>n1_25-&gt;n2_5</title>
<path fill="none" stroke="black" d="M2566.13,-1986.68C2549.41,-1936.25 2477.61,-1716.88 2432.16,-1533.38 2412.55,-1454.18 2422.93,-1430.44 2396.16,-1353.38 2365.06,-1263.85 2351.56,-1242.48 2299.35,-1163.38 2211.23,-1029.86 2174.65,-981.09 2021.65,-934.38 1852.81,-882.82 1802.36,-905.86 1625.92,-900.38 1568.46,-898.59 1548.11,-875.9 1496.58,-901.38 1473.3,-912.88 1481.61,-932.16 1460.58,-947.38 1430.81,-968.91 1414.83,-957.38 1382.8,-975.38 1364.88,-985.44 1364.23,-993.5 1346.8,-1004.38 1312.97,-1025.48 1301.82,-1025.84 1265.54,-1042.38 1191.27,-1076.22 982.74,-1129.22 929.85,-1191.38 889.05,-1239.32 940.25,-1285.82 893.85,-1328.38 839.8,-1377.95 781.6,-1303.07 731.22,-1356.38 634.73,-1458.46 787.14,-1564.16 695.22,-1670.38 663.31,-1707.24 622.03,-1662.37 589.15,-1698.38 524.41,-1769.27 595.62,-1825.27 553.15,-1911.38 548.27,-1921.28 540.13,-1930.45 532.72,-1937.5"></path>
<polygon fill="black" stroke="black" points="531.2,-1936.52 528.7,-1941.19 533.56,-1939.1 531.2,-1936.52"></polygon>
</g>
<!-- n2_1&#45;&gt;n2_2 -->
<!-- n2_2&#45;&gt;n2_3 -->
<!-- n2_3&#45;&gt;n2_4 -->
<!-- n2_4&#45;&gt;n2_5 -->
<!-- n2_5&#45;&gt;n2_6 -->
<!-- n2_6&#45;&gt;n2_7 -->
<!-- n2_7&#45;&gt;n2_8 -->
</g>
</svg>